<svg xmlns="http://www.w3.org/2000/svg" width="512" height="512" viewBox="0 0 512 512" role="img" aria-label="iZone Climate">
  <rect width="512" height="512" rx="96" fill="#061312"/>
  <path d="M128 164c42-52 109-68 171-43 52 21 86 70 87 124 1 69-55 125-124 125H128" fill="none" stroke="#22e6d1" stroke-width="28" stroke-linecap="round"/>
  <path d="M132 248h150" stroke="#22e6d1" stroke-width="28" stroke-linecap="round"/>
  <path d="M154 320h108" stroke="#22e6d1" stroke-width="28" stroke-linecap="round"/>
  <circle cx="342" cy="170" r="38" fill="#ff7043"/>
  <path d="M342 98v28M342 214v28M270 170h28M386 170h28M291 119l20 20M373 201l20 20M291 221l20-20M373 139l20-20" stroke="#ff7043" stroke-width="18" stroke-linecap="round"/>
</svg>

